How to Train Your Dragon (2010) 720p mkv Eng-NLubs

[IMG]http://img267.imageshack.us/img267/3376/frontfk.jpg[/IMG]

PLOT

A hapless young Viking who aspires to hunt dragons
becomes the unlikely friend of a young dragon himself, and
learns there may be more to the creatures than he 
assumed. 
 
http://www.youtube.com/watch?v=HqMYHjlBMUY

MM:    http://www.moviemeter.nl/film/52147

IMDB:    http://www.imdb.com/title/tt0892769/

Info

Source...: How To Train Your Dragon 720p Bluray x264-CBGB
Bitrate..: 755 Kbps

Audio
Formaat..: DD5.1
Bitrate..: 640 Kbps
Kanaal...: 6 kanalen
Kanaal...: Front: L C R, Side: L R, LFE

Ondertiteling: Nederlands, Engels
Vertaling....: ?

Controle en Sync: Guiker
Bewerking Source: Guiker

Thanks To guiker

Enjoy This Nice release

PLAYER INFO

   Video #1
      ID : 1
      Format : AVC
      Format/Info : Advanced Video Codec
      Format profile : High@L3.1
      Format settings, CABAC : Yes
      Format settings, ReFrames : 5 frames
      Muxing mode : Container profile=Unknown@3.1
      Codec ID : V_MPEG4/ISO/AVC
      Duration : 1h 37mn
      Bit rate : 5 630 Kbps
      Nominal bit rate : 5 755 Kbps
      Width : 1 280 pixels
      Height : 544 pixels
      Display aspect ratio : 2.35:1
      Frame rate : 23.976 fps
      Resolution : 24 bits
      Colorimetry : 4:2:0
      Scan type : Progressive
      Bits/(Pixel*Frame) : 0.337
      Stream size : 3.84 GiB (88%)
      Writing library : x264 core 106 r1732 b20059a
      Encoding settings : cabac=1 / ref=5 / deblock=1:0:0 / analyse=0x3:0x113 / me=umh / 
subme=8 / psy=1 / psy_rd=1.00:0.20 / mixed_ref=1 / me_range=16 / chroma_me=1 / trellis=1 / 
8x8dct=1 / cqm=0 / deadzone=21,11 / fast_pskip=1 / chroma_qp_offset=-3 / threads=12 / 
sliced_threads=0 / nr=0 / decimate=1 / interlaced=0 / constrained_intra=0 / bframes=3 / 
b_pyramid=2 / b_adapt=1 / b_bias=0 / direct=3 / weightb=1 / open_gop=0 / weightp=2 / 
keyint=250 / keyint_min=23 / scenecut=40 / intra_refresh=0 / rc_lookahead=40 / rc=2pass / 
mbtree=1 / bitrate=5755 / ratetol=1.0 / qcomp=0.60 / qpmin=10 / qpmax=51 / qpstep=4 / 
cplxblur=20.0 / qblur=0.5 / ip_ratio=1.40 / aq=1:1.00
   Audio #2
      ID : 2
      Format : AC-3
      Format/Info : Audio Coding 3
      Codec ID : A_AC3
      Duration : 1h 37mn
      Bit rate mode : Constant
      Bit rate : 640 Kbps
      Channel(s) : 6 channels
      Channel positions : Front: L C R, Surround: L R, LFE
      Sampling rate : 48.0 KHz
      Stream size : 448 MiB (10%)
   Text #3
      ID : 3
      Format : UTF-8
      Codec ID : S_TEXT/UTF8
      Codec ID/Info : UTF-8 Plain Text
   Text #4
      ID : 4
      Format : UTF-8
      Codec ID : S_TEXT/UTF8
      Codec ID/Info : UTF-8 Plain Text
      Language : Dutch
